<svg width="140" height="140" viewBox="0 0 140 140" fill="none" xmlns="http://www.w3.org/2000/svg">
<path d="M83.7543 15C85.272 17.2798 85.9623 19.1657 86.802 21.7638C87.1021 22.6902 87.4022 23.6166 87.7114 24.5711C88.0338 25.5816 88.3556 26.5924 88.677 27.6033C88.9228 28.3734 88.9228 28.3734 89.1736 29.1591C107.948 88.073 107.948 88.073 99.8605 104.845C98.7798 106.714 97.6313 108.482 96.3861 110.245C96.0585 110.719 95.731 111.193 95.3935 111.681C92.2897 115.724 88.0999 118.115 83.7543 120.663C83.9995 122.136 84.2447 123.609 84.4973 125.127C75.1795 125.127 65.8617 125.127 56.2615 125.127C56.2615 123.9 56.2615 122.672 56.2615 121.407C55.7404 121.154 55.2194 120.9 54.6825 120.64C45.2343 115.806 39.9008 109.318 36.292 99.3163C33.2168 87.7354 36.5818 78.0943 42.2642 68.0759C48.0395 58.2258 55.0467 49.1692 62.2059 40.2995C62.77 39.5984 63.3342 38.8972 63.9155 38.1748C70.3266 30.272 76.8935 22.5152 83.7543 15Z" fill="#7CC53B"/>
<path d="M83.7528 15C85.2837 17.2996 85.9788 19.2203 86.8266 21.8423C86.9756 22.3012 87.1245 22.7602 87.278 23.233C87.7636 24.735 88.2433 26.2387 88.7219 27.7428C88.8855 28.2539 89.0491 28.765 89.2177 29.2916C91.5154 36.4794 93.7211 43.6893 95.7809 50.9495C96.0062 51.7338 96.2314 52.5181 96.4635 53.3261C96.6626 54.043 96.8616 54.7598 97.0667 55.4984C97.2412 56.1232 97.4157 56.7479 97.5955 57.3916C97.8707 58.9021 97.8707 58.9021 97.1277 60.3904C96.4074 59.7765 95.6871 59.1626 94.945 58.5301C90.0912 55.478 84.0567 55.9839 78.5515 56.6698C73.6304 57.847 70.1382 61.4428 67.4057 65.5991C65.9029 69.1581 65.6201 72.4899 65.4552 76.2956C65.4265 76.8433 65.3977 77.391 65.3681 77.9553C65.2987 79.293 65.2369 80.6312 65.1766 81.9694C62.2973 81.3183 62.2973 81.3183 61.4613 80.4812C61.3439 79.3052 61.2559 78.1262 61.1827 76.9467C60.878 73.8426 60.6531 71.6963 58.4891 69.3196C54.4366 66.6271 49.7644 65.3705 45.1143 64.1109C48.7615 58.1449 52.7328 52.5297 57.003 46.9965C57.3213 46.5828 57.6395 46.1692 57.9674 45.743C62.3047 40.1158 66.7762 34.6256 71.388 29.2223C73.8153 26.3725 76.1595 23.4563 78.4992 20.5343C80.1557 18.5812 81.9219 16.7888 83.7528 15Z" fill="#336D30"/>
<path d="M44.374 64.8545C51.4315 67.2816 55.9616 73.0737 59.4092 79.4517C61.0376 81.6525 62.7311 82.3107 65.1794 83.4571C65.236 88.1576 65.275 92.8581 65.3018 97.5589C65.313 99.1576 65.3283 100.756 65.3476 102.355C65.3746 104.655 65.3873 106.954 65.3971 109.254C65.4086 109.967 65.4201 110.68 65.4319 111.415C65.4329 115.087 65.4156 117.717 62.9502 120.662C60.6672 121.805 58.7231 121.86 56.2628 121.406C46.406 117.426 41.0779 110.557 36.9174 101.045C34.2518 93.6577 34.3306 84.5984 37.3731 77.3677C39.5285 73.0922 41.9097 68.9576 44.374 64.8545Z" fill="#336D30"/>
<path d="M93.2711 56.7129C95.3355 57.9912 96.9032 59.42 98.6146 61.1339C99.0251 66.313 99.0251 66.313 97.8252 68.575C95.5756 69.7377 93.6631 69.5447 91.1842 69.3191C89.6981 67.8308 89.6981 67.8308 89.5529 66.0578C89.5702 65.3844 89.5874 64.7111 89.6052 64.0173C89.6186 63.3401 89.632 62.6629 89.6458 61.9652C89.663 61.4453 89.6803 60.9254 89.6981 60.3898C83.3533 59.7752 83.3533 59.7752 77.6699 62.0175C75.0994 66.0119 74.5722 69.3754 74.3727 74.0162C74.2347 76.8478 74.2347 76.8478 74.094 79.7365C78.0173 79.7365 81.9406 79.7365 85.9828 79.7365C86.3506 81.5782 86.3506 81.5782 86.7259 83.457C85.9828 84.2011 85.9828 84.2011 83.3096 84.2738C82.2037 84.2688 81.0978 84.2599 79.992 84.2476C79.1464 84.2426 79.1464 84.2426 78.2838 84.2375C76.8872 84.2287 75.4906 84.2153 74.094 84.2011C74.1635 88.8096 74.2424 93.4178 74.3299 98.0259C74.3583 99.5935 74.3842 101.161 74.4075 102.729C74.4414 104.982 74.4845 107.236 74.5294 109.489C74.538 110.19 74.5466 110.891 74.5554 111.613C74.5702 112.268 74.5849 112.923 74.6002 113.598C74.6101 114.173 74.62 114.748 74.6302 115.341C74.8659 117.165 75.3373 118.37 76.3232 119.918C78.1095 120.6 78.1095 120.6 80.1313 120.848C80.8075 120.96 81.4838 121.071 82.1805 121.185C82.6996 121.258 83.2188 121.331 83.7537 121.406C83.9989 122.634 84.2441 123.862 84.4967 125.127C75.1789 125.127 65.861 125.127 56.2609 125.127C56.5061 123.899 56.7513 122.671 57.0039 121.406C58.5035 121.116 60.0032 120.825 61.5028 120.534C63.0468 120.04 63.0468 120.04 63.7669 118.605C64.4941 116.793 64.6386 115.476 64.6713 113.53C64.6861 112.86 64.7008 112.19 64.7161 111.499C64.7289 110.424 64.7289 110.424 64.7421 109.326C64.7564 108.587 64.7708 107.848 64.7857 107.087C64.83 104.729 64.8645 102.371 64.8988 100.013C64.9272 98.4137 64.9562 96.8141 64.9859 95.2145C65.0572 91.2954 65.1204 87.3763 65.1774 83.457C64.7179 83.3608 64.2584 83.2646 63.7849 83.1655C60.2611 82.156 58.418 78.6672 56.4466 75.7835C53.0218 70.9908 49.0586 67.5991 44.3721 64.1103C49.6732 64.5719 55.3749 65.9533 59.2795 69.7841C61.7154 72.7743 61.6204 75.003 61.7786 78.7599C62.0295 80.6132 62.0295 80.6132 63.7233 81.4573C64.2031 81.6261 64.683 81.7949 65.1774 81.9688C65.1516 81.1698 65.1257 80.3708 65.0991 79.5476C65.0781 78.4789 65.0579 77.4102 65.0381 76.3415C65.0194 75.8173 65.0008 75.2931 64.9815 74.7531C64.8992 68.7933 67.1518 64.528 71.1828 60.2416C76.8424 54.9202 86.0258 53.9782 93.2711 56.7129Z" fill="#FCFDFB"/>
<path d="M83.7546 15C85.2855 17.2996 85.9806 19.2203 86.8284 21.8423C86.9773 22.3012 87.1263 22.7602 87.2798 23.2331C87.7654 24.735 88.2451 26.2387 88.7237 27.7428C88.8873 28.2539 89.0509 28.765 89.2195 29.2916C91.5172 36.4794 93.7229 43.6893 95.7827 50.9495C96.008 51.7338 96.2332 52.5181 96.4653 53.3261C96.6644 54.043 96.8634 54.7599 97.0685 55.4985C97.3303 56.4356 97.3303 56.4356 97.5973 57.3916C97.8725 58.9022 97.8725 58.9022 97.1295 60.3904C96.4092 59.7765 95.6889 59.1626 94.9468 58.5301C90.1012 55.435 84.0638 56.2757 78.5533 56.6698C77.5582 56.8999 76.5659 57.1434 75.5811 57.4139C76.803 47.496 78.5615 37.7838 80.7305 28.0284C81.8814 22.9345 81.8814 22.9345 82.7271 17.7846C83.0115 15.7441 83.0115 15.7441 83.7546 15Z" fill="#7AC43A"/>
<path d="M44.3721 64.1104C49.6732 64.572 55.3748 65.9533 59.2795 69.7841C61.2487 72.2015 61.5976 73.655 61.8802 76.7136C61.9735 77.6906 61.9735 77.6906 62.0688 78.6872C62.2052 80.4806 62.2052 80.4806 62.2052 82.713C59.9456 80.5753 58.2003 78.3489 56.4466 75.7835C53.0218 70.9909 49.0586 67.5991 44.3721 64.1104Z" fill="#F3F7F2"/>
<path d="M46.6006 65.5986C52.0397 69.3336 56.9799 73.7371 59.9755 79.7366C59.9755 80.2277 59.9755 80.7188 59.9755 81.2248C56.0325 81.6009 54.13 80.7088 51.0589 78.2484C49.2245 76.1144 48.3442 74.2041 47.5758 71.505C47.3891 70.8671 47.2023 70.2292 47.0098 69.572C46.6006 67.8309 46.6006 67.8309 46.6006 65.5986Z" fill="#7DC53E"/>
</svg>
