<svg width="140" height="140" viewBox="0 0 140 140" fill="none" xmlns="http://www.w3.org/2000/svg">
<path d="M97.6069 33.409C106.101 40.3185 113.147 49.8373 114.43 60.9907C115.287 75.2785 115.419 77.4803 113.106 81.3195C112.672 82.0393 111.581 81.7118 111.578 80.8715C111.136 69.3819 108.177 59.5819 100.553 50.7365C92.7583 43.6108 84.6281 41.1386 74.2791 41.2856C73.3269 41.2961 72.3746 41.3066 71.3935 41.3175C64.3443 41.5331 58.9077 42.3789 53.2881 46.9096C52.5006 47.5255 51.7132 48.1415 50.9018 48.776C43.326 55.4802 40.0353 63.0078 38.7775 72.9603C38.2488 84.4511 40.1532 93.282 46.9512 102.674C52.8517 108.909 59.8297 111.752 67.9585 113.938C68.2751 114.023 68.4967 114.305 68.4967 114.633C68.4967 115.027 68.1785 115.354 67.784 115.354C56.156 115.348 46.8565 110.765 38.1389 103.006C28.4114 92.3207 24.7368 79.334 25.0145 65.0887C26.0811 53.5322 31.0681 43.599 39.3469 35.5032C57.588 21.4529 78.5806 19.7087 97.6069 33.409Z" fill="#7951B4"/>
<path d="M81.6352 46.857C84.3215 47.3827 86.9192 48.3444 89.2484 49.7824C96.0584 53.9867 100.502 59.9591 104.044 67.5141C107.311 76.913 105.821 85.8727 101.777 94.7826C97.88 101.68 92.8993 105.953 85.3452 108.422C79.966 109.512 74.449 109.726 69.0017 109.074C68.6749 109.035 68.3717 108.885 68.139 108.652C68.0846 108.598 68.0302 108.543 67.9758 108.489C67.1611 107.674 67.6457 106.279 68.79 106.145C70.8694 105.849 72.4076 105.63 73.6676 105.399C80.796 104.092 86.5789 98.3137 88.9301 91.4585C89.8835 88.6786 90.367 85.853 90.4718 82.7732C90.6521 77.4759 89.2879 71.9985 85.627 68.1655C84.4486 66.9316 83.1411 65.8475 81.6723 64.8138C78.9105 62.87 75.7822 61.4271 72.4495 60.8812C67.6031 60.0874 62.9867 60.6597 58.1213 62.7515C52.4882 65.8674 49.5823 70.2848 46.9524 76.059C45.9628 79.3214 45.8805 79.5925 45.7288 81.757C45.7036 82.1158 45.4105 82.3959 45.0509 82.3959C44.6956 82.3959 44.3943 82.1218 44.3668 81.7675C43.608 72.0113 44.5701 64.9953 50.7546 57.0483C59.5688 47.8799 69.5105 44.4842 81.6352 46.857Z" fill="#7850B4"/>
<path d="M67.2242 65.5555C72.265 65.0906 77.4722 66.6494 81.2493 70.0197C81.6084 70.3401 81.9531 70.6727 82.2844 71.0197C85.7134 74.6123 86.8822 79.8638 86.3692 84.8036C86.2085 86.3508 85.8935 87.8282 85.3748 89.3215C83.965 93.3798 81.0039 96.7901 77.3609 99.0673C74.2026 101.041 71.0426 101.831 66.087 101.768C62.1459 101.232 59.1897 99.3709 56.5254 96.87C54.4158 94.8898 52.6019 92.543 51.6411 89.8138C51.5284 89.4937 51.4259 89.1741 51.3329 88.8545C49.4282 82.3036 51.8002 74.9163 56.7571 70.2289C59.6772 67.4677 63.0384 65.9416 67.2242 65.5555Z" fill="#774EB3"/>
</svg>
