<svg width="200" height="200" viewBox="0 0 200 200" fill="none" xmlns="http://www.w3.org/2000/svg">
<g clip-path="url(#clip0_319_2)">
<path d="M181.908 0H18.0916C8.1 0 0 8.1 0 18.0916V181.908C0 191.9 8.1 200 18.0916 200H181.908C191.9 200 200 191.9 200 181.908V18.0916C200 8.1 191.9 0 181.908 0ZM61.8885 172.693C61.8885 175.601 59.5314 177.958 56.6236 177.958H34.212C31.3042 177.958 28.9471 175.601 28.9471 172.693V78.745C28.9471 75.8372 31.3042 73.4801 34.212 73.4801H56.6236C59.5314 73.4801 61.8885 75.8372 61.8885 78.745V172.693ZM45.4178 64.6241C33.6592 64.6241 24.1267 55.0916 24.1267 43.333C24.1267 31.5743 33.6592 22.0419 45.4178 22.0419C57.1764 22.0419 66.7089 31.5743 66.7089 43.333C66.7089 55.0916 57.177 64.6241 45.4178 64.6241ZM179.01 173.117C179.01 175.791 176.843 177.958 174.17 177.958H150.12C147.447 177.958 145.28 175.791 145.28 173.117V129.05C145.28 122.476 147.208 100.243 128.1 100.243C113.279 100.243 110.272 115.461 109.669 122.291V173.117C109.669 175.791 107.502 177.958 104.828 177.958H81.5681C78.8948 177.958 76.7272 175.791 76.7272 173.117V78.3209C76.7272 75.6476 78.8948 73.4801 81.5681 73.4801H104.828C107.501 73.4801 109.669 75.6476 109.669 78.3209V86.5173C115.164 78.2696 123.332 71.9037 140.722 71.9037C179.231 71.9037 179.01 107.881 179.01 127.648V173.117Z" fill="white"/>
</g>
<defs>
<clipPath id="clip0_319_2">
<rect width="200" height="200" fill="white"/>
</clipPath>
</defs>
</svg>
