<svg width="140" height="140" viewBox="0 0 140 140" fill="none" xmlns="http://www.w3.org/2000/svg">
<path d="M69.0008 54.6478C69.6773 54.5572 70.3662 54.5572 71.0427 54.6478C71.6338 54.7269 72.0085 54.8263 72.3855 55.0551C73.6284 55.8097 74.2241 57.3405 74.2241 58.7946C74.2241 60.2486 73.6284 61.7794 72.3855 62.534C72.0085 62.7629 71.6338 62.8622 71.0427 62.9413C70.3662 63.0319 69.6773 63.0319 69.0008 62.9413C68.4097 62.8622 68.035 62.7629 67.658 62.534C66.4151 61.7794 65.8193 60.2486 65.8193 58.7946C65.8193 57.3405 66.4151 55.8097 67.658 55.0551C68.035 54.8263 68.4097 54.7269 69.0008 54.6478Z" fill="#5D3967"/>
<path d="M69.2237 43.862C69.7522 43.8 70.289 43.8 70.8176 43.862C71.6904 43.9644 72.1208 44.0796 72.6467 44.4765C73.6452 45.2302 74.2169 46.5443 74.2608 47.7946C74.318 49.4286 73.3501 50.9451 71.8652 51.6294C71.0135 52.022 70.4446 51.9426 68.956 51.7349C67.6824 51.3906 66.6865 50.3692 66.4405 49.073C66.3838 48.7743 66.3373 48.5009 66.2922 48.2003C66.0652 46.6868 66.4494 44.9121 67.81 44.2114C68.185 44.0183 68.5864 43.9368 69.2237 43.862Z" fill="#5C3666"/>
<path d="M90.9205 68.1737C91.7528 66.2496 94.1262 65.5211 96.1689 65.9924C96.2665 66.0149 96.3575 66.0382 96.443 66.0625C97.8325 66.4582 98.3864 68.0613 98.3871 69.506C98.3877 70.9586 97.8302 72.5418 96.5876 73.294C96.1693 73.5472 95.7532 73.6413 95.0406 73.7256C94.5009 73.7894 93.9525 73.7894 93.4128 73.7256C93.267 73.7084 93.1337 73.6907 93.0102 73.6714C90.843 73.332 90.0406 70.4449 90.829 68.3978C90.858 68.3225 90.8885 68.2478 90.9205 68.1737Z" fill="#77347E"/>
<path d="M54.0492 68.0793C54.8924 66.1599 57.37 65.5211 59.4128 65.9924C59.5103 66.0149 59.6013 66.0382 59.6869 66.0625C61.0764 66.4582 61.6303 68.0613 61.6309 69.506C61.6316 70.9586 61.0697 72.5338 59.834 73.2973C59.3539 73.5939 58.8773 73.6862 57.9527 73.8063C57.6336 73.8478 57.2069 73.8344 56.8876 73.7945C55.7697 73.6547 54.8511 73.0587 54.2567 72.1017C53.6482 71.1217 53.5201 70.6936 53.5676 69.9351C53.6045 69.3444 53.7595 68.7654 53.9888 68.2198C54.0092 68.1713 54.0293 68.1245 54.0492 68.0793Z" fill="#50365B"/>
<path d="M45.9461 65.7584C47.8178 65.9592 49.2405 67.423 49.5278 69.2833C49.7569 70.7664 49.3884 72.6432 48.0679 73.3561C47.6807 73.5651 47.2735 73.65 46.6125 73.7275C46.084 73.7895 45.5472 73.7895 45.0186 73.7275C44.5457 73.672 44.2027 73.6128 43.9041 73.5071C42.2594 72.9248 41.7749 70.7702 42.0636 69.0496C42.3489 67.3488 43.554 65.7378 45.2785 65.7238C45.5014 65.722 45.7227 65.7345 45.9461 65.7584Z" fill="#443550"/>
<path d="M81.9154 65.68C82.4272 65.7124 82.9324 65.8192 83.4205 65.9765C83.5811 66.0283 83.7248 66.0755 83.8544 66.1197C85.222 66.5856 85.8408 68.1016 85.8362 69.5463C85.8352 69.8811 85.8192 70.225 85.7882 70.6971C85.7418 71.4048 85.4406 72.0638 84.9391 72.5653C84.2979 73.2065 83.39 73.5269 82.4902 73.4137C82.0541 73.3589 81.7096 73.3122 81.3887 73.2624C79.6163 72.9873 78.1575 71.875 77.8802 70.1029C77.7124 69.0303 77.8902 67.6602 78.58 66.8218C79.4341 65.7836 80.2349 65.5737 81.9154 65.68Z" fill="#703578"/>
<path d="M57.7094 54.9213C58.2212 54.9536 58.7263 55.0604 59.2144 55.2177C59.3751 55.2695 59.5187 55.3167 59.6483 55.3609C61.0159 55.8268 61.6347 57.3428 61.6302 58.7875C61.6291 59.1223 61.6131 59.4662 61.5821 59.9383C61.5357 60.646 61.2345 61.305 60.733 61.8065C60.0918 62.4477 59.1839 62.7681 58.2842 62.655C57.8481 62.6001 57.5035 62.5535 57.1827 62.5036C55.4103 62.2285 53.9514 61.1162 53.6742 59.3442C53.5064 58.2715 53.6841 56.9014 54.3739 56.063C55.2281 55.0248 56.0289 54.8149 57.7094 54.9213Z" fill="#4C3258"/>
<path d="M103.514 88.9526C104.156 88.3114 105.064 87.991 105.963 88.1041C106.211 88.1353 106.43 88.1638 106.631 88.1918C108.584 88.4634 110.039 90.1999 109.989 92.1715C109.983 92.4346 109.973 92.728 109.96 93.0782C109.932 93.8035 109.637 94.4849 109.123 94.9981C108.496 95.626 107.606 95.9392 106.725 95.8264C105.702 95.6953 105.044 95.5928 104.561 95.4553C103.172 95.0597 102.613 93.4163 102.617 91.9716C102.618 91.6368 102.634 91.2929 102.665 90.8208C102.712 90.1131 103.013 89.4541 103.514 88.9526Z" fill="#792F82"/>
<path d="M30.8961 88.9537C31.5378 88.3119 32.4478 87.9919 33.3479 88.1076C34.3532 88.2368 35.0022 88.3386 35.4802 88.4746C36.8697 88.8703 37.4287 90.5136 37.4242 91.9584C37.4231 92.2935 37.4071 92.6378 37.376 93.1107C37.3297 93.8174 37.0289 94.4755 36.5281 94.9763C35.8864 95.618 34.9765 95.938 34.0763 95.8223C33.0711 95.6932 32.422 95.5914 31.9441 95.4553C30.5545 95.0597 29.9955 93.4163 30.0001 91.9716C30.0011 91.6364 30.0172 91.2921 30.0482 90.8192C30.0946 90.1125 30.3953 89.4544 30.8961 88.9537Z" fill="#2D2E3A"/>
<path d="M93.5399 77.055C93.9588 77.0193 94.3824 77.0183 94.8014 77.0528C95.1024 77.0775 95.3548 77.103 95.5756 77.1375C97.647 77.4605 98.2585 80.2102 97.7871 82.253C97.7646 82.3505 97.7414 82.4415 97.717 82.5271C97.3214 83.9166 95.678 84.4756 94.2333 84.4711C93.8982 84.47 93.5538 84.454 93.081 84.423C92.3742 84.3766 91.7162 84.0758 91.2154 83.575C90.5736 82.9333 90.2533 82.0232 90.3699 81.1231C90.8331 77.5485 91.1236 77.2608 93.5399 77.055Z" fill="#732B7B"/>
<path d="M45.1287 77.055C45.5477 77.0193 45.9712 77.0183 46.3903 77.0528C46.6913 77.0775 46.9437 77.103 47.1645 77.1375C49.2359 77.4605 49.8474 80.2102 49.376 82.253C49.3535 82.3505 49.3302 82.4415 49.3059 82.5271C48.9102 83.9166 47.2669 84.4756 45.8221 84.4711C45.487 84.47 45.1427 84.454 44.6698 84.423C43.9631 84.3766 43.305 84.0758 42.8042 83.575C42.1625 82.9333 41.8421 82.0232 41.9588 81.1231C42.422 77.5485 42.7125 77.2608 45.1287 77.055Z" fill="#3E2D4A"/>
<path d="M33.7121 77.0605C34.1819 77.0801 34.5696 77.0963 34.8944 77.1144C36.6222 77.2107 37.3822 79.0281 37.3822 80.7587C37.3822 82.4892 36.6222 84.3066 34.8944 84.4029C34.5696 84.421 34.1819 84.4372 33.7121 84.4568C33.2423 84.4372 32.8546 84.421 32.5298 84.4029C30.802 84.3066 30.042 82.4892 30.042 80.7587C30.042 79.0281 30.802 77.2107 32.5298 77.1144C32.8546 77.0963 33.2423 77.0801 33.7121 77.0605Z" fill="#2E303C"/>
<path d="M79.3082 55.7837C79.9499 55.142 80.8599 54.822 81.76 54.9377C82.7653 55.0669 83.4143 55.1686 83.8923 55.3047C85.2818 55.7004 85.8409 57.3437 85.8363 58.7885C85.8352 59.1236 85.8192 59.4679 85.7882 59.9408C85.7418 60.6475 85.441 61.3056 84.9402 61.8064C84.2985 62.4481 83.3886 62.7681 82.4884 62.6524C81.4832 62.5232 80.8341 62.4215 80.3562 62.2854C78.9666 61.8897 78.4076 60.2464 78.4122 58.8016C78.4132 58.4665 78.4293 58.1222 78.4603 57.6493C78.5067 56.9426 78.8074 56.2845 79.3082 55.7837Z" fill="#692D72"/>
<path d="M106.33 77.0605C106.8 77.0801 107.188 77.0963 107.512 77.1144C109.24 77.2107 110 79.0281 110 80.7587C110 82.4892 109.235 84.3094 107.506 84.3706C107.169 84.3825 106.766 84.3907 106.274 84.4007C104.748 84.3683 103.458 83.2523 103.238 81.7417C103.172 81.2925 103.108 80.8431 103.046 80.3934C102.845 78.9279 103.326 77.244 104.802 77.1363C105.188 77.1081 105.681 77.0876 106.33 77.0605Z" fill="#792D81"/>
</svg>
