<svg width="140" height="140" viewBox="0 0 140 140" fill="none" xmlns="http://www.w3.org/2000/svg">
<path d="M75.6185 33.0136C75.7434 33.0129 75.8682 33.0122 75.9969 33.0115C76.2602 33.0104 76.5235 33.0096 76.7868 33.0091C77.1793 33.008 77.5717 33.0042 77.9641 33.0004C79.7292 32.9915 81.4377 33.1295 83.1816 33.3991C83.3084 33.4184 83.3084 33.4184 83.4377 33.438C91.0796 34.6215 99.1671 38.7117 104.173 44.7234C104.394 44.9873 104.629 45.2367 104.863 45.4888C110.703 51.9747 113.779 60.7311 113.786 69.3974C113.786 69.5473 113.786 69.5473 113.786 69.7003C113.782 72.9042 113.376 76.0274 112.542 79.1244C112.519 79.2073 112.497 79.2902 112.474 79.3756C112.42 79.5779 112.366 79.7802 112.311 79.9825C110.291 79.9909 108.27 79.9973 106.249 80.0012C105.311 80.003 104.373 80.0056 103.434 80.0097C102.615 80.0133 101.796 80.0156 100.978 80.0164C100.545 80.0169 100.112 80.018 99.6794 80.0207C94.1623 80.0531 94.1623 80.0531 92.4633 78.4506C92.3376 78.3151 92.3376 78.3151 92.2094 78.1769C91.817 78.3077 91.7636 78.3738 91.5248 78.6885C90.7794 79.5779 89.857 79.9418 88.7187 80.1028C87.406 80.1593 86.3617 79.716 85.3972 78.838C85.1734 78.6005 85.0125 78.3478 84.8668 78.0565C84.4434 78.2546 84.0629 78.5026 83.6706 78.7562C81.8435 79.8967 79.7868 80.3908 77.6511 79.9322C76.3629 79.6175 74.8124 79.0726 73.9131 78.0565C73.8517 78.1351 73.7902 78.2136 73.7269 78.2945C72.9077 79.2792 72.0134 79.9381 70.7158 80.1028C69.3814 80.1508 68.2857 79.8243 67.2881 78.9165C66.351 77.9177 66.0806 76.826 66.0204 75.4991C66.0152 75.3881 66.0101 75.277 66.0048 75.1625C65.97 74.3248 65.9629 73.489 65.9696 72.6507C65.9706 72.5307 65.9715 72.4107 65.9725 72.287C65.9769 71.796 65.982 71.3051 65.9893 70.8141C66.0479 68.1891 66.0479 68.1891 64.8853 65.8991C64.8248 65.8237 64.7643 65.7483 64.702 65.6706C63.8732 64.7449 62.6273 64.1865 61.3946 64.0936C59.9842 64.0602 58.7478 64.5996 57.6862 65.5112C56.1914 67.0273 56.2853 69.0614 56.2866 71.0406C56.2829 73.5614 55.874 75.6299 54.1724 77.5751C54.1083 77.6506 54.0442 77.7262 53.9782 77.804C52.845 79.0441 51.2228 79.8072 49.5682 79.9749C48.904 80.0048 48.4695 79.9923 47.9131 79.6214C47.6131 79.2729 47.5568 79.0637 47.5069 78.6057C47.5577 78.1231 47.6332 77.852 47.9131 77.4547C48.3854 77.1848 48.8105 77.0775 49.3425 76.9807C50.5393 76.7559 51.4451 76.2292 52.2093 75.2744C53.695 73.0588 53.3444 69.9682 53.3241 67.4383C53.3201 66.9313 53.3177 66.4243 53.3155 65.9173C53.3148 65.7426 53.314 65.5679 53.3133 65.3932C53.3129 65.3059 53.3125 65.2186 53.3121 65.1286C53.307 63.9514 53.3007 62.7743 53.291 61.5972C53.2844 60.7983 53.28 59.9995 53.2781 59.2005C53.2769 58.7792 53.2747 58.358 53.2698 57.9367C53.2644 57.4683 53.2637 57 53.2634 56.5316C53.261 56.3931 53.2587 56.2547 53.2562 56.112C53.2616 55.0655 53.2616 55.0655 53.6198 54.6206C54.0818 54.2102 54.3736 54.1761 54.9755 54.18C55.4471 54.2528 55.6534 54.4843 55.9779 54.8251C56.1451 55.1595 56.118 55.4372 56.123 55.8114C56.1266 56.0463 56.1266 56.0463 56.1303 56.286C56.1323 56.4576 56.1344 56.6292 56.1364 56.8008C56.1389 56.9759 56.1414 57.151 56.144 57.326C56.1506 57.7871 56.1566 58.2482 56.1624 58.7093C56.1684 59.1797 56.1751 59.65 56.1818 60.1204C56.1947 61.0436 56.2069 61.9667 56.2187 62.8899C56.3421 62.8022 56.3421 62.8022 56.4681 62.7128C56.5762 62.6364 56.6844 62.5601 56.7958 62.4814C56.9029 62.4056 57.0101 62.3298 57.1205 62.2517C57.4525 62.0269 57.7797 61.857 58.1521 61.7087C58.2628 61.6633 58.3734 61.6178 58.4874 61.571C59.3707 61.2787 60.2019 61.1609 61.1313 61.1671C61.2896 61.168 61.2896 61.168 61.451 61.1689C62.2771 61.1837 63.0204 61.287 63.802 61.5658C63.9227 61.6082 64.0434 61.6505 64.1678 61.6942C65.0199 62.021 65.7312 62.4516 66.4502 63.0102C66.5268 63.067 66.6035 63.1238 66.6824 63.1823C68.1664 64.3497 68.7591 66.1323 68.9779 67.9454C69.0071 68.5105 69.0139 69.0746 69.0146 69.6402C69.0151 69.9151 69.0171 70.1899 69.0196 70.4647C69.0262 71.2449 69.0299 72.0251 69.0329 72.8054C69.0348 73.2855 69.0384 73.7655 69.0431 74.2456C69.0445 74.4276 69.0452 74.6095 69.0452 74.7914C69.0452 75.0452 69.0474 75.2988 69.0501 75.5525C69.0507 75.6965 69.0513 75.8405 69.0519 75.9888C69.1032 76.412 69.2039 76.6351 69.4594 76.9732C69.9009 77.2675 70.2701 77.3009 70.7835 77.214C71.0761 76.9888 71.2217 76.819 71.3853 76.4917C71.3971 76.3045 71.4014 76.1168 71.402 75.9292C71.4026 75.8106 71.4033 75.692 71.4039 75.5697C71.4041 75.4391 71.4042 75.3085 71.4043 75.1739C71.4049 75.0367 71.4056 74.8995 71.4062 74.7581C71.4075 74.4593 71.4085 74.1604 71.4093 73.8616C71.4107 73.3885 71.4131 72.9155 71.4157 72.4425C71.4232 71.0973 71.4297 69.7521 71.4337 68.4068C71.4361 67.5847 71.4404 66.7626 71.4458 65.9405C71.4475 65.6271 71.4485 65.3137 71.4489 65.0002C71.4495 64.5614 71.4523 64.1226 71.4556 63.6837C71.455 63.4896 71.455 63.4896 71.4545 63.2916C71.4623 62.5835 71.5217 62.069 71.8668 61.4454C72.2394 61.0955 72.576 61.0552 73.0705 61.0317C73.488 61.0453 73.6607 61.0778 74.0335 61.2874C74.5438 61.8775 74.5495 62.4657 74.5457 63.2186C74.5464 63.3755 74.5464 63.3755 74.547 63.5356C74.5479 63.7623 74.5482 63.989 74.548 64.2157C74.5479 64.5757 74.5494 64.9356 74.5515 65.2956C74.557 66.3189 74.56 67.3422 74.5608 68.3655C74.5614 68.9922 74.5644 69.6188 74.5687 70.2454C74.5699 70.4831 74.5701 70.7208 74.5695 70.9585C74.5647 72.8097 74.685 74.335 76.0304 75.7267C76.9994 76.6273 78.1384 77.0285 79.4502 77.0936C80.7169 77.0398 82.0644 76.446 82.9409 75.5288C84.0964 74.0106 84.196 72.5765 84.1867 70.7341C84.185 70.3743 84.1858 70.0145 84.1873 69.6547C84.191 68.6327 84.1904 67.6106 84.188 66.5886C84.1867 65.9611 84.1883 65.3337 84.1916 64.7062C84.1922 64.4679 84.1917 64.2297 84.1901 63.9914C84.1878 63.6587 84.1892 63.3261 84.1913 62.9934C84.1897 62.8957 84.1881 62.7979 84.1865 62.6972C84.1936 62.203 84.2397 61.8976 84.5555 61.5067C85.038 61.0387 85.3611 61.0429 86.0127 61.0505C86.4397 61.0989 86.6347 61.2439 86.9131 61.5658C87.1128 61.9848 87.1842 62.3182 87.1858 62.7806C87.1868 62.9012 87.1878 63.0219 87.1888 63.1462C87.1887 63.2772 87.1885 63.4083 87.1884 63.5432C87.1892 63.6823 87.1901 63.8213 87.1909 63.9645C87.1925 64.2661 87.1936 64.5677 87.1942 64.8693C87.1952 65.3463 87.1977 65.8233 87.2006 66.3003C87.207 67.3987 87.211 68.4971 87.215 69.5955C87.2187 70.6028 87.2229 71.61 87.229 72.6173C87.2323 73.1677 87.2337 73.7182 87.2348 74.2687C87.2363 74.5564 87.238 74.844 87.2397 75.1317C87.2396 75.263 87.2394 75.3942 87.2393 75.5295C87.2403 75.6498 87.2413 75.7701 87.2423 75.8941C87.2427 75.9985 87.243 76.1029 87.2434 76.2105C87.2771 76.5177 87.3536 76.7112 87.515 76.9732C87.9287 77.2796 88.3396 77.2665 88.839 77.214C89.1705 76.9978 89.3839 76.8465 89.5613 76.4917C89.5728 76.2128 89.5763 75.9334 89.5763 75.6542C89.5764 75.567 89.5766 75.4798 89.5768 75.39C89.5772 75.0963 89.5768 74.8027 89.5764 74.509C89.5766 74.2991 89.5768 74.0891 89.5771 73.8792C89.5777 73.4262 89.5779 72.9733 89.5779 72.5204C89.578 71.8042 89.5796 71.088 89.5815 70.3718C89.5818 70.251 89.5821 70.1302 89.5824 70.0058C89.583 69.7588 89.5837 69.5118 89.5843 69.2647C89.5885 67.5969 89.5917 65.9291 89.5914 64.2612C89.5912 63.1369 89.5932 62.0126 89.5975 60.8882C89.5998 60.2931 89.6009 59.698 89.5994 59.1028C89.598 58.5428 89.5994 57.9828 89.603 57.4228C89.6038 57.2174 89.6035 57.0119 89.6022 56.8065C89.6005 56.5257 89.6026 56.2452 89.6055 55.9644C89.6058 55.7289 89.6058 55.7289 89.606 55.4886C89.7052 54.9339 89.8894 54.7393 90.2835 54.3436C90.6993 54.1357 91.1521 54.1806 91.6076 54.2232C92.0347 54.3904 92.1703 54.5181 92.4034 54.913C92.5805 55.3301 92.6144 55.6015 92.6115 56.0515C92.6115 56.1961 92.6115 56.3406 92.6114 56.4895C92.6086 56.7209 92.6086 56.7209 92.6058 56.9569C92.6051 57.1178 92.6046 57.2787 92.6042 57.4396C92.6029 57.8611 92.5993 58.2826 92.5953 58.7041C92.5916 59.135 92.59 59.5659 92.5882 59.9968C92.5843 60.8408 92.5781 61.6848 92.5705 62.5288C92.7024 62.4534 92.8343 62.3779 92.9701 62.3002C93.1451 62.2009 93.32 62.1015 93.4949 62.0021C93.5816 61.9525 93.6683 61.9028 93.7576 61.8517C95.5178 60.8545 97.5742 60.6741 99.537 61.152C100.974 61.5943 102.111 62.3058 103.163 63.3714C103.24 63.4452 103.316 63.5191 103.395 63.5952C105.152 65.4182 105.273 67.7421 105.263 70.1231C105.262 70.5167 105.266 70.91 105.269 71.3036C105.278 73.6227 104.913 74.9415 103.765 77.0936C106.744 77.1532 106.744 77.1532 109.783 77.214C109.823 76.8565 109.863 76.499 109.904 76.1306C109.94 75.8838 109.977 75.6372 110.017 75.391C110.048 75.1942 110.048 75.1942 110.08 74.9934C110.123 74.7248 110.166 74.4561 110.209 74.1875C110.45 72.6652 110.535 71.1631 110.536 69.6231C110.536 69.5341 110.536 69.4451 110.536 69.3534C110.531 65.7818 109.948 62.3061 108.821 58.9177C108.791 58.8261 108.76 58.7346 108.73 58.6404C107.181 53.9892 104.502 49.8018 101.117 46.2788C101.024 46.1817 101.024 46.1817 100.929 46.0827C100.076 45.1993 99.1991 44.3846 98.2279 43.6306C98.0784 43.5109 97.9289 43.3912 97.7794 43.2714C92.4865 39.0769 85.5385 36.2986 78.7308 36.2636C78.5647 36.2623 78.5647 36.2623 78.3952 36.261C74.9942 36.2317 74.9942 36.2317 71.6261 36.6491C71.5008 36.6724 71.3755 36.6957 71.2465 36.7197C68.3733 37.2662 65.5932 38.1427 62.9594 39.4177C62.8775 39.4566 62.7956 39.4955 62.7112 39.5356C60.2864 40.6894 58.0359 42.1441 55.9779 43.8714C55.9165 43.9221 55.855 43.9729 55.7917 44.0252C54.2209 45.3245 52.779 46.7144 51.5242 48.3251C51.4185 48.4562 51.3125 48.5873 51.2064 48.7181C47.176 53.7164 45.1075 59.5013 44.0613 65.7788C43.0285 65.7788 41.9957 65.7788 40.9316 65.7788C40.9316 59.1479 44.3734 52.1147 48.3946 47.001C48.4886 46.8812 48.5827 46.7614 48.6795 46.638C50.3698 44.5327 52.2818 42.4947 54.4572 40.8885C54.6549 40.741 54.8489 40.5896 55.0422 40.4366C56.6596 39.1592 58.3724 38.0975 60.1909 37.1306C60.2685 37.0888 60.3461 37.0469 60.4261 37.0038C65.001 34.5499 70.412 33.0366 75.6185 33.0136ZM93.6539 65.538C92.7619 66.6648 92.5534 67.9877 92.5461 69.388C92.5454 69.491 92.5447 69.594 92.544 69.7001C92.5429 69.9174 92.5421 70.1347 92.5416 70.352C92.5404 70.6812 92.5367 71.0102 92.5329 71.3393C92.5216 73.1735 92.772 74.4531 94.03 75.8523C94.9246 76.7033 96.1623 77.1961 97.3882 77.2215C98.9078 77.1637 100.157 76.5977 101.237 75.5288C102.865 73.5908 102.575 70.7492 102.391 68.384C102.257 67.0782 101.79 65.9387 100.814 65.0349C98.5351 63.3652 95.6072 63.3285 93.6539 65.538Z" fill="#EE4823"/>
<path d="M40.8115 72.8799C41.884 72.8799 42.9565 72.8799 44.0615 72.8799C44.1236 73.3268 44.1857 73.7736 44.2496 74.234C45.1601 80.3265 47.6364 86.1151 51.6449 90.8151C51.7573 90.9498 51.8697 91.0846 51.982 91.2194C53.0586 92.5037 54.2029 93.718 55.4967 94.7873C55.5547 94.8362 55.6127 94.8851 55.6724 94.9355C61.1898 99.573 68.5093 102.717 75.7796 102.756C75.8846 102.757 75.9897 102.758 76.0979 102.759C78.3592 102.773 80.5893 102.782 82.8208 102.371C82.9483 102.347 83.0758 102.324 83.2072 102.3C90.8521 100.854 98.2154 96.7581 103.043 90.5743C103.13 90.465 103.13 90.465 103.219 90.3535C105.239 87.8139 106.892 85.045 108.099 82.028C109.251 82.028 110.402 82.028 111.589 82.028C110.25 85.8599 108.23 89.3435 105.691 92.5003C105.545 92.6834 105.545 92.6834 105.396 92.8703C103.734 94.9041 101.799 96.8552 99.6726 98.3984C99.4243 98.5964 99.176 98.7945 98.9278 98.9927C94.6074 102.342 89.2539 104.507 83.9041 105.5C83.7703 105.525 83.6365 105.551 83.4986 105.576C79.563 106.279 75.2014 106.336 71.2652 105.621C71.0656 105.585 71.0656 105.585 70.862 105.548C64.698 104.403 58.8728 101.834 54.0523 97.7966C53.934 97.7005 53.8158 97.6045 53.694 97.5055C52.7709 96.745 51.9135 95.9237 51.0656 95.0807C50.9607 94.9769 50.8558 94.8732 50.7478 94.7663C50.0332 94.0482 49.3844 93.2944 48.756 92.5003C48.6985 92.4289 48.641 92.3576 48.5818 92.2841C44.1302 86.747 41.4642 79.9408 40.8115 72.8799Z" fill="#818385"/>
<path d="M28.1719 54.2219C28.5711 54.4178 28.8119 54.5582 29.0323 54.9472C29.1807 55.4652 29.1644 55.9601 29.1584 56.4962C29.1581 56.6102 29.1577 56.7243 29.1574 56.8418C29.156 57.2048 29.153 57.5678 29.1499 57.9308C29.1487 58.1774 29.1476 58.424 29.1466 58.6706C29.144 59.2741 29.1398 59.8776 29.1349 60.4811C29.2592 60.4799 29.2592 60.4799 29.3859 60.4787C30.249 60.4707 31.1121 60.4653 31.9752 60.4613C32.2972 60.4597 32.6192 60.457 32.9412 60.4539C33.4043 60.4495 33.8674 60.4475 34.3306 60.4459C34.5461 60.4431 34.5461 60.4431 34.7661 60.4402C36.0381 60.44 36.0381 60.44 36.5979 60.8422C36.8507 61.2215 36.8799 61.3505 36.8913 61.7902C36.8985 61.9424 36.8985 61.9424 36.9058 62.0977C36.806 62.5571 36.6022 62.7184 36.2367 63.0089C35.8721 63.0702 35.5737 63.0958 35.2094 63.094C35.1091 63.0958 35.0087 63.0976 34.9054 63.0995C34.5843 63.1047 34.2633 63.1057 33.9422 63.1067C33.7333 63.1095 33.5245 63.1125 33.3156 63.1159C31.8821 63.1363 30.4482 63.1319 29.0145 63.1293C29.0248 64.2082 29.0362 65.2872 29.0491 66.3661C29.0551 66.8674 29.0607 67.3686 29.0653 67.8698C29.0698 68.3553 29.0754 68.8407 29.0817 69.3262C29.0839 69.5096 29.0857 69.693 29.0871 69.8765C29.0949 70.8462 29.1313 71.8065 29.2353 72.7712C29.2435 72.8531 29.2517 72.9351 29.2601 73.0196C29.4111 74.2788 30.026 75.3983 31.0246 76.1838C32.5307 77.1964 34.2718 77.1256 36.0207 77.0728C36.7551 77.0584 37.2777 77.0874 37.9219 77.4533C38.3177 77.8874 38.3404 78.315 38.316 78.8799C38.2673 79.2626 38.188 79.4576 37.9219 79.7404C37.0987 80.1371 36.366 80.1536 35.4619 80.1391C35.3233 80.1378 35.1848 80.1364 35.0421 80.135C32.5316 80.0949 30.2695 79.8114 28.3666 78.027C26.269 75.7779 25.9943 72.7272 26.0001 69.7854C26.0003 69.6491 26.0004 69.5127 26.0006 69.3723C26.0016 68.8561 26.0033 68.3399 26.0053 67.8237C26.0057 67.7156 26.0061 67.6074 26.0065 67.496C26.0126 65.9144 26.0215 64.3328 26.0336 62.7512C26.0391 62.0367 26.0438 61.3222 26.047 60.6077C26.0501 59.9069 26.0549 59.2063 26.061 58.5056C26.063 58.2408 26.0644 57.9761 26.0652 57.7114C26.0663 57.3435 26.0697 56.9757 26.0736 56.6078C26.0734 56.5 26.0732 56.3922 26.0731 56.2811C26.0829 55.6258 26.1766 55.1638 26.4867 54.583C26.9744 54.1383 27.5431 54.1222 28.1719 54.2219Z" fill="#818385"/>
<path d="M41.4949 67.7882C41.6072 67.7877 41.7196 67.7872 41.8353 67.7867C42.0723 67.786 42.3094 67.7859 42.5464 67.7864C42.9081 67.7868 43.2696 67.784 43.6313 67.7809C43.8621 67.7807 44.0928 67.7806 44.3236 67.7807C44.4312 67.7796 44.5388 67.7785 44.6497 67.7773C45.4152 67.783 45.9271 67.9168 46.5133 68.4413C46.7862 68.9242 46.7908 69.328 46.7089 69.8707C46.5116 70.3246 46.281 70.5704 45.8663 70.8337C45.5894 70.8812 45.5894 70.8812 45.2817 70.8842C45.166 70.8862 45.0503 70.8881 44.9311 70.89C44.7447 70.8901 44.7447 70.8901 44.5545 70.8901C44.426 70.891 44.2975 70.8919 44.165 70.8929C43.8933 70.8942 43.6215 70.8945 43.3497 70.894C42.9346 70.8939 42.5198 70.8989 42.1048 70.9042C41.8405 70.9048 41.5763 70.9052 41.312 70.9052C41.1882 70.9071 41.0645 70.9091 40.9369 70.9111C39.9743 70.9019 39.9743 70.9019 39.5306 70.5509C39.1099 70.0793 39.0768 69.6713 39.0838 69.0629C39.1567 68.5826 39.3708 68.3901 39.7275 68.0652C40.2926 67.7536 40.8668 67.7876 41.4949 67.7882Z" fill="#818385"/>
</svg>
