<svg width="899" height="449" viewBox="0 0 899 449" fill="none" xmlns="http://www.w3.org/2000/svg">
<path d="M147.692 108.424V179.648L97.6523 139.486V66.0567H147.692C224.726 64.1408 266.398 110.997 258.362 179.648C249.262 257.391 188.576 259.765 97.6523 256.717V214.713C173.989 214.713 195.174 218.366 207.958 179.648C216.358 127.053 190.426 106.234 147.692 108.424Z" fill="#0A0A0A"/>
<circle cx="112.262" cy="187.263" r="18.2625" fill="#E543FF"/>
<path d="M308.08 136.64C301.78 136.64 296.6 134.82 292.54 131.18C288.62 127.4 286.66 122.78 286.66 117.32C286.66 111.72 288.62 107.1 292.54 103.46C296.6 99.68 301.78 97.79 308.08 97.79C314.24 97.79 319.28 99.68 323.2 103.46C327.26 107.1 329.29 111.72 329.29 117.32C329.29 122.78 327.26 127.4 323.2 131.18C319.28 134.82 314.24 136.64 308.08 136.64ZM325.93 148.82V266H290.02V148.82H325.93ZM396.474 147.14C404.734 147.14 411.944 148.82 418.104 152.18C424.404 155.54 429.234 159.95 432.594 165.41V148.82H468.504V265.79C468.504 276.57 466.334 286.3 461.994 294.98C457.794 303.8 451.284 310.8 442.464 315.98C433.784 321.16 422.934 323.75 409.914 323.75C392.554 323.75 378.484 319.62 367.704 311.36C356.924 303.24 350.764 292.18 349.224 278.18H384.714C385.834 282.66 388.494 286.16 392.694 288.68C396.894 291.34 402.074 292.67 408.234 292.67C415.654 292.67 421.534 290.5 425.874 286.16C430.354 281.96 432.594 275.17 432.594 265.79V249.2C429.094 254.66 424.264 259.14 418.104 262.64C411.944 266 404.734 267.68 396.474 267.68C386.814 267.68 378.064 265.23 370.224 260.33C362.384 255.29 356.154 248.22 351.534 239.12C347.054 229.88 344.814 219.24 344.814 207.2C344.814 195.16 347.054 184.59 351.534 175.49C356.154 166.39 362.384 159.39 370.224 154.49C378.064 149.59 386.814 147.14 396.474 147.14ZM432.594 207.41C432.594 198.45 430.074 191.38 425.034 186.2C420.134 181.02 414.114 178.43 406.974 178.43C399.834 178.43 393.744 181.02 388.704 186.2C383.804 191.24 381.354 198.24 381.354 207.2C381.354 216.16 383.804 223.3 388.704 228.62C393.744 233.8 399.834 236.39 406.974 236.39C414.114 236.39 420.134 233.8 425.034 228.62C430.074 223.44 432.594 216.37 432.594 207.41ZM604.943 205.52C604.943 208.88 604.733 212.38 604.313 216.02H523.043C523.603 223.3 525.913 228.9 529.973 232.82C534.173 236.6 539.283 238.49 545.303 238.49C554.263 238.49 560.493 234.71 563.993 227.15H602.213C600.253 234.85 596.683 241.78 591.503 247.94C586.463 254.1 580.093 258.93 572.393 262.43C564.693 265.93 556.083 267.68 546.563 267.68C535.083 267.68 524.863 265.23 515.903 260.33C506.943 255.43 499.943 248.43 494.903 239.33C489.863 230.23 487.343 219.59 487.343 207.41C487.343 195.23 489.793 184.59 494.693 175.49C499.733 166.39 506.733 159.39 515.693 154.49C524.653 149.59 534.943 147.14 546.563 147.14C557.903 147.14 567.983 149.52 576.803 154.28C585.623 159.04 592.483 165.83 597.383 174.65C602.423 183.47 604.943 193.76 604.943 205.52ZM568.193 196.07C568.193 189.91 566.093 185.01 561.893 181.37C557.693 177.73 552.443 175.91 546.143 175.91C540.123 175.91 535.013 177.66 530.813 181.16C526.753 184.66 524.233 189.63 523.253 196.07H568.193ZM689.197 235.55V266H670.927C657.907 266 647.757 262.85 640.477 256.55C633.197 250.11 629.557 239.68 629.557 225.26V178.64H615.277V148.82H629.557V120.26H665.467V148.82H688.987V178.64H665.467V225.68C665.467 229.18 666.307 231.7 667.987 233.24C669.667 234.78 672.467 235.55 676.387 235.55H689.197ZM762.54 267.68C751.06 267.68 740.7 265.23 731.46 260.33C722.36 255.43 715.15 248.43 709.83 239.33C704.65 230.23 702.06 219.59 702.06 207.41C702.06 195.37 704.72 184.8 710.04 175.7C715.36 166.46 722.64 159.39 731.88 154.49C741.12 149.59 751.48 147.14 762.96 147.14C774.44 147.14 784.8 149.59 794.04 154.49C803.28 159.39 810.56 166.46 815.88 175.7C821.2 184.8 823.86 195.37 823.86 207.41C823.86 219.45 821.13 230.09 815.67 239.33C810.35 248.43 803 255.43 793.62 260.33C784.38 265.23 774.02 267.68 762.54 267.68ZM762.54 236.6C769.4 236.6 775.21 234.08 779.97 229.04C784.87 224 787.32 216.79 787.32 207.41C787.32 198.03 784.94 190.82 780.18 185.78C775.56 180.74 769.82 178.22 762.96 178.22C755.96 178.22 750.15 180.74 745.53 185.78C740.91 190.68 738.6 197.89 738.6 207.41C738.6 216.79 740.84 224 745.32 229.04C749.94 234.08 755.68 236.6 762.54 236.6Z" fill="#0A0A0A"/>
<path d="M112.266 352.968V357.112H101.626V392H96.5297V357.112H85.8337V352.968H112.266ZM133.771 360.752C136.085 360.752 138.176 361.256 140.043 362.264C141.909 363.235 143.365 364.709 144.411 366.688C145.493 368.667 146.035 371.075 146.035 373.912V392H140.995V374.64C140.995 371.579 140.229 369.245 138.699 367.64C137.168 365.997 135.077 365.176 132.427 365.176C129.739 365.176 127.592 366.016 125.987 367.696C124.419 369.376 123.635 371.821 123.635 375.032V392H118.539V350.56H123.635V365.68C124.643 364.112 126.024 362.899 127.779 362.04C129.571 361.181 131.568 360.752 133.771 360.752ZM182.359 375.48C182.359 376.451 182.303 377.477 182.191 378.56H157.663C157.85 381.584 158.876 383.955 160.743 385.672C162.647 387.352 164.943 388.192 167.631 388.192C169.834 388.192 171.663 387.688 173.119 386.68C174.612 385.635 175.658 384.253 176.255 382.536H181.743C180.922 385.485 179.279 387.893 176.815 389.76C174.351 391.589 171.29 392.504 167.631 392.504C164.719 392.504 162.106 391.851 159.791 390.544C157.514 389.237 155.722 387.389 154.415 385C153.108 382.573 152.455 379.773 152.455 376.6C152.455 373.427 153.09 370.645 154.359 368.256C155.628 365.867 157.402 364.037 159.679 362.768C161.994 361.461 164.644 360.808 167.631 360.808C170.543 360.808 173.119 361.443 175.359 362.712C177.599 363.981 179.316 365.736 180.511 367.976C181.743 370.179 182.359 372.68 182.359 375.48ZM177.095 374.416C177.095 372.475 176.666 370.813 175.807 369.432C174.948 368.013 173.772 366.949 172.279 366.24C170.823 365.493 169.199 365.12 167.407 365.12C164.831 365.12 162.628 365.941 160.799 367.584C159.007 369.227 157.98 371.504 157.719 374.416H177.095ZM233.583 364.28C232.5 362.003 230.932 360.248 228.879 359.016C226.826 357.747 224.436 357.112 221.711 357.112C218.986 357.112 216.522 357.747 214.319 359.016C212.154 360.248 210.436 362.04 209.167 364.392C207.935 366.707 207.319 369.395 207.319 372.456C207.319 375.517 207.935 378.205 209.167 380.52C210.436 382.835 212.154 384.627 214.319 385.896C216.522 387.128 218.986 387.744 221.711 387.744C225.519 387.744 228.655 386.605 231.119 384.328C233.583 382.051 235.02 378.971 235.431 375.088H219.863V370.944H240.863V374.864C240.564 378.075 239.556 381.024 237.839 383.712C236.122 386.363 233.863 388.472 231.063 390.04C228.263 391.571 225.146 392.336 221.711 392.336C218.09 392.336 214.786 391.496 211.799 389.816C208.812 388.099 206.442 385.728 204.687 382.704C202.97 379.68 202.111 376.264 202.111 372.456C202.111 368.648 202.97 365.232 204.687 362.208C206.442 359.147 208.812 356.776 211.799 355.096C214.786 353.379 218.09 352.52 221.711 352.52C225.855 352.52 229.514 353.547 232.687 355.6C235.898 357.653 238.231 360.547 239.687 364.28H233.583ZM252.697 350.56V392H247.601V350.56H252.697ZM274.766 392.504C271.892 392.504 269.278 391.851 266.926 390.544C264.612 389.237 262.782 387.389 261.438 385C260.132 382.573 259.478 379.773 259.478 376.6C259.478 373.464 260.15 370.701 261.494 368.312C262.876 365.885 264.742 364.037 267.094 362.768C269.446 361.461 272.078 360.808 274.99 360.808C277.902 360.808 280.534 361.461 282.886 362.768C285.238 364.037 287.086 365.867 288.43 368.256C289.812 370.645 290.502 373.427 290.502 376.6C290.502 379.773 289.793 382.573 288.374 385C286.993 387.389 285.108 389.237 282.718 390.544C280.329 391.851 277.678 392.504 274.766 392.504ZM274.766 388.024C276.596 388.024 278.313 387.595 279.918 386.736C281.524 385.877 282.812 384.589 283.782 382.872C284.79 381.155 285.294 379.064 285.294 376.6C285.294 374.136 284.809 372.045 283.838 370.328C282.868 368.611 281.598 367.341 280.03 366.52C278.462 365.661 276.764 365.232 274.934 365.232C273.068 365.232 271.35 365.661 269.782 366.52C268.252 367.341 267.02 368.611 266.086 370.328C265.153 372.045 264.686 374.136 264.686 376.6C264.686 379.101 265.134 381.211 266.03 382.928C266.964 384.645 268.196 385.933 269.726 386.792C271.257 387.613 272.937 388.024 274.766 388.024ZM302.299 367.024C303.344 365.195 304.875 363.701 306.891 362.544C308.907 361.387 311.203 360.808 313.779 360.808C316.541 360.808 319.024 361.461 321.227 362.768C323.429 364.075 325.165 365.923 326.435 368.312C327.704 370.664 328.339 373.408 328.339 376.544C328.339 379.643 327.704 382.405 326.435 384.832C325.165 387.259 323.411 389.144 321.171 390.488C318.968 391.832 316.504 392.504 313.779 392.504C311.128 392.504 308.795 391.925 306.779 390.768C304.8 389.611 303.307 388.136 302.299 386.344V392H297.203V350.56H302.299V367.024ZM323.131 376.544C323.131 374.229 322.664 372.213 321.731 370.496C320.797 368.779 319.528 367.472 317.923 366.576C316.355 365.68 314.619 365.232 312.715 365.232C310.848 365.232 309.112 365.699 307.507 366.632C305.939 367.528 304.669 368.853 303.699 370.608C302.765 372.325 302.299 374.323 302.299 376.6C302.299 378.915 302.765 380.949 303.699 382.704C304.669 384.421 305.939 385.747 307.507 386.68C309.112 387.576 310.848 388.024 312.715 388.024C314.619 388.024 316.355 387.576 317.923 386.68C319.528 385.747 320.797 384.421 321.731 382.704C322.664 380.949 323.131 378.896 323.131 376.544ZM333.142 376.544C333.142 373.408 333.777 370.664 335.046 368.312C336.316 365.923 338.052 364.075 340.254 362.768C342.494 361.461 344.977 360.808 347.702 360.808C350.39 360.808 352.724 361.387 354.702 362.544C356.681 363.701 358.156 365.157 359.126 366.912V361.312H364.278V392H359.126V386.288C358.118 388.08 356.606 389.573 354.59 390.768C352.612 391.925 350.297 392.504 347.646 392.504C344.921 392.504 342.457 391.832 340.254 390.488C338.052 389.144 336.316 387.259 335.046 384.832C333.777 382.405 333.142 379.643 333.142 376.544ZM359.126 376.6C359.126 374.285 358.66 372.269 357.726 370.552C356.793 368.835 355.524 367.528 353.918 366.632C352.35 365.699 350.614 365.232 348.71 365.232C346.806 365.232 345.07 365.68 343.502 366.576C341.934 367.472 340.684 368.779 339.75 370.496C338.817 372.213 338.35 374.229 338.35 376.544C338.35 378.896 338.817 380.949 339.75 382.704C340.684 384.421 341.934 385.747 343.502 386.68C345.07 387.576 346.806 388.024 348.71 388.024C350.614 388.024 352.35 387.576 353.918 386.68C355.524 385.747 356.793 384.421 357.726 382.704C358.66 380.949 359.126 378.915 359.126 376.6ZM377.986 350.56V392H372.89V350.56H377.986ZM406.697 352.968V392H401.601V352.968H406.697ZM452.286 360.752C454.676 360.752 456.804 361.256 458.67 362.264C460.537 363.235 462.012 364.709 463.094 366.688C464.177 368.667 464.718 371.075 464.718 373.912V392H459.678V374.64C459.678 371.579 458.913 369.245 457.382 367.64C455.889 365.997 453.854 365.176 451.278 365.176C448.628 365.176 446.518 366.035 444.95 367.752C443.382 369.432 442.598 371.877 442.598 375.088V392H437.558V374.64C437.558 371.579 436.793 369.245 435.262 367.64C433.769 365.997 431.734 365.176 429.158 365.176C426.508 365.176 424.398 366.035 422.83 367.752C421.262 369.432 420.478 371.877 420.478 375.088V392H415.382V361.312H420.478V365.736C421.486 364.131 422.83 362.899 424.51 362.04C426.228 361.181 428.113 360.752 430.166 360.752C432.742 360.752 435.02 361.331 436.998 362.488C438.977 363.645 440.452 365.344 441.422 367.584C442.281 365.419 443.7 363.739 445.678 362.544C447.657 361.349 449.86 360.752 452.286 360.752ZM478.174 366.968C479.182 365.213 480.675 363.757 482.654 362.6C484.67 361.405 487.003 360.808 489.654 360.808C492.379 360.808 494.843 361.461 497.046 362.768C499.286 364.075 501.04 365.923 502.31 368.312C503.579 370.664 504.214 373.408 504.214 376.544C504.214 379.643 503.579 382.405 502.31 384.832C501.04 387.259 499.286 389.144 497.046 390.488C494.843 391.832 492.379 392.504 489.654 392.504C487.04 392.504 484.726 391.925 482.71 390.768C480.731 389.573 479.219 388.099 478.174 386.344V406.56H473.078V361.312H478.174V366.968ZM499.006 376.544C499.006 374.229 498.539 372.213 497.606 370.496C496.672 368.779 495.403 367.472 493.798 366.576C492.23 365.68 490.494 365.232 488.59 365.232C486.723 365.232 484.987 365.699 483.382 366.632C481.814 367.528 480.544 368.853 479.574 370.608C478.64 372.325 478.174 374.323 478.174 376.6C478.174 378.915 478.64 380.949 479.574 382.704C480.544 384.421 481.814 385.747 483.382 386.68C484.987 387.576 486.723 388.024 488.59 388.024C490.494 388.024 492.23 387.576 493.798 386.68C495.403 385.747 496.672 384.421 497.606 382.704C498.539 380.949 499.006 378.896 499.006 376.544ZM509.017 376.544C509.017 373.408 509.652 370.664 510.921 368.312C512.191 365.923 513.927 364.075 516.129 362.768C518.369 361.461 520.852 360.808 523.577 360.808C526.265 360.808 528.599 361.387 530.577 362.544C532.556 363.701 534.031 365.157 535.001 366.912V361.312H540.153V392H535.001V386.288C533.993 388.08 532.481 389.573 530.465 390.768C528.487 391.925 526.172 392.504 523.521 392.504C520.796 392.504 518.332 391.832 516.129 390.488C513.927 389.144 512.191 387.259 510.921 384.832C509.652 382.405 509.017 379.643 509.017 376.544ZM535.001 376.6C535.001 374.285 534.535 372.269 533.601 370.552C532.668 368.835 531.399 367.528 529.793 366.632C528.225 365.699 526.489 365.232 524.585 365.232C522.681 365.232 520.945 365.68 519.377 366.576C517.809 367.472 516.559 368.779 515.625 370.496C514.692 372.213 514.225 374.229 514.225 376.544C514.225 378.896 514.692 380.949 515.625 382.704C516.559 384.421 517.809 385.747 519.377 386.68C520.945 387.576 522.681 388.024 524.585 388.024C526.489 388.024 528.225 387.576 529.793 386.68C531.399 385.747 532.668 384.421 533.601 382.704C534.535 380.949 535.001 378.915 535.001 376.6ZM546.861 376.6C546.861 373.427 547.496 370.664 548.765 368.312C550.034 365.923 551.789 364.075 554.029 362.768C556.306 361.461 558.901 360.808 561.813 360.808C565.584 360.808 568.682 361.723 571.109 363.552C573.573 365.381 575.197 367.92 575.981 371.168H570.493C569.97 369.301 568.944 367.827 567.413 366.744C565.92 365.661 564.053 365.12 561.813 365.12C558.901 365.12 556.549 366.128 554.757 368.144C552.965 370.123 552.069 372.941 552.069 376.6C552.069 380.296 552.965 383.152 554.757 385.168C556.549 387.184 558.901 388.192 561.813 388.192C564.053 388.192 565.92 387.669 567.413 386.624C568.906 385.579 569.933 384.085 570.493 382.144H575.981C575.16 385.28 573.517 387.8 571.053 389.704C568.589 391.571 565.509 392.504 561.813 392.504C558.901 392.504 556.306 391.851 554.029 390.544C551.789 389.237 550.034 387.389 548.765 385C547.496 382.611 546.861 379.811 546.861 376.6ZM588.997 365.512V383.6C588.997 385.093 589.314 386.157 589.949 386.792C590.583 387.389 591.685 387.688 593.253 387.688H597.005V392H592.413C589.575 392 587.447 391.347 586.029 390.04C584.61 388.733 583.901 386.587 583.901 383.6V365.512H579.925V361.312H583.901V353.584H588.997V361.312H597.005V365.512H588.997ZM623.205 357.112V370.16H637.429V374.36H623.205V387.8H639.109V392H618.109V352.912H639.109V357.112H623.205ZM661.772 360.752C665.505 360.752 668.529 361.891 670.844 364.168C673.158 366.408 674.316 369.656 674.316 373.912V392H669.276V374.64C669.276 371.579 668.51 369.245 666.98 367.64C665.449 365.997 663.358 365.176 660.708 365.176C658.02 365.176 655.873 366.016 654.268 367.696C652.7 369.376 651.916 371.821 651.916 375.032V392H646.82V361.312H651.916V365.68C652.924 364.112 654.286 362.899 656.004 362.04C657.758 361.181 659.681 360.752 661.772 360.752ZM695.296 360.808C697.947 360.808 700.261 361.387 702.24 362.544C704.256 363.701 705.749 365.157 706.72 366.912V361.312H711.872V392.672C711.872 395.472 711.275 397.955 710.08 400.12C708.885 402.323 707.168 404.04 704.928 405.272C702.725 406.504 700.149 407.12 697.2 407.12C693.168 407.12 689.808 406.168 687.12 404.264C684.432 402.36 682.845 399.765 682.36 396.48H687.4C687.96 398.347 689.117 399.84 690.872 400.96C692.627 402.117 694.736 402.696 697.2 402.696C700 402.696 702.277 401.819 704.032 400.064C705.824 398.309 706.72 395.845 706.72 392.672V386.232C705.712 388.024 704.219 389.517 702.24 390.712C700.261 391.907 697.947 392.504 695.296 392.504C692.571 392.504 690.088 391.832 687.848 390.488C685.645 389.144 683.909 387.259 682.64 384.832C681.371 382.405 680.736 379.643 680.736 376.544C680.736 373.408 681.371 370.664 682.64 368.312C683.909 365.923 685.645 364.075 687.848 362.768C690.088 361.461 692.571 360.808 695.296 360.808ZM706.72 376.6C706.72 374.285 706.253 372.269 705.32 370.552C704.387 368.835 703.117 367.528 701.512 366.632C699.944 365.699 698.208 365.232 696.304 365.232C694.4 365.232 692.664 365.68 691.096 366.576C689.528 367.472 688.277 368.779 687.344 370.496C686.411 372.213 685.944 374.229 685.944 376.544C685.944 378.896 686.411 380.949 687.344 382.704C688.277 384.421 689.528 385.747 691.096 386.68C692.664 387.576 694.4 388.024 696.304 388.024C698.208 388.024 699.944 387.576 701.512 386.68C703.117 385.747 704.387 384.421 705.32 382.704C706.253 380.949 706.72 378.915 706.72 376.6ZM723.116 356.328C722.145 356.328 721.324 355.992 720.652 355.32C719.98 354.648 719.644 353.827 719.644 352.856C719.644 351.885 719.98 351.064 720.652 350.392C721.324 349.72 722.145 349.384 723.116 349.384C724.049 349.384 724.833 349.72 725.468 350.392C726.14 351.064 726.476 351.885 726.476 352.856C726.476 353.827 726.14 354.648 725.468 355.32C724.833 355.992 724.049 356.328 723.116 356.328ZM725.58 361.312V392H720.484V361.312H725.58ZM749.217 360.752C752.95 360.752 755.974 361.891 758.289 364.168C760.604 366.408 761.761 369.656 761.761 373.912V392H756.721V374.64C756.721 371.579 755.956 369.245 754.425 367.64C752.894 365.997 750.804 365.176 748.153 365.176C745.465 365.176 743.318 366.016 741.713 367.696C740.145 369.376 739.361 371.821 739.361 375.032V392H734.265V361.312H739.361V365.68C740.369 364.112 741.732 362.899 743.449 362.04C745.204 361.181 747.126 360.752 749.217 360.752ZM798.085 375.48C798.085 376.451 798.029 377.477 797.917 378.56H773.389C773.576 381.584 774.603 383.955 776.469 385.672C778.373 387.352 780.669 388.192 783.357 388.192C785.56 388.192 787.389 387.688 788.845 386.68C790.339 385.635 791.384 384.253 791.981 382.536H797.469C796.648 385.485 795.005 387.893 792.541 389.76C790.077 391.589 787.016 392.504 783.357 392.504C780.445 392.504 777.832 391.851 775.517 390.544C773.24 389.237 771.448 387.389 770.141 385C768.835 382.573 768.181 379.773 768.181 376.6C768.181 373.427 768.816 370.645 770.085 368.256C771.355 365.867 773.128 364.037 775.405 362.768C777.72 361.461 780.371 360.808 783.357 360.808C786.269 360.808 788.845 361.443 791.085 362.712C793.325 363.981 795.043 365.736 796.237 367.976C797.469 370.179 798.085 372.68 798.085 375.48ZM792.821 374.416C792.821 372.475 792.392 370.813 791.533 369.432C790.675 368.013 789.499 366.949 788.005 366.24C786.549 365.493 784.925 365.12 783.133 365.12C780.557 365.12 778.355 365.941 776.525 367.584C774.733 369.227 773.707 371.504 773.445 374.416H792.821Z" fill="#0A0A0A"/>
</svg>
