<svg width="900" height="350" viewBox="0 0 900 350" fill="none" xmlns="http://www.w3.org/2000/svg">
<path d="M147.692 108.424V179.648L97.6523 139.486V66.0567H147.692C224.726 64.1408 266.398 110.997 258.362 179.648C249.262 257.391 188.576 259.765 97.6523 256.717V214.713C173.989 214.713 195.174 218.366 207.958 179.648C216.358 127.053 190.426 106.234 147.692 108.424Z" fill="#FEFEFE"/>
<circle cx="112.262" cy="187.263" r="18.2625" fill="#E543FF"/>
<path d="M308.08 136.64C301.78 136.64 296.6 134.82 292.54 131.18C288.62 127.4 286.66 122.78 286.66 117.32C286.66 111.72 288.62 107.1 292.54 103.46C296.6 99.68 301.78 97.79 308.08 97.79C314.24 97.79 319.28 99.68 323.2 103.46C327.26 107.1 329.29 111.72 329.29 117.32C329.29 122.78 327.26 127.4 323.2 131.18C319.28 134.82 314.24 136.64 308.08 136.64ZM325.93 148.82V266H290.02V148.82H325.93ZM396.474 147.14C404.734 147.14 411.944 148.82 418.104 152.18C424.404 155.54 429.234 159.95 432.594 165.41V148.82H468.504V265.79C468.504 276.57 466.334 286.3 461.994 294.98C457.794 303.8 451.284 310.8 442.464 315.98C433.784 321.16 422.934 323.75 409.914 323.75C392.554 323.75 378.484 319.62 367.704 311.36C356.924 303.24 350.764 292.18 349.224 278.18H384.714C385.834 282.66 388.494 286.16 392.694 288.68C396.894 291.34 402.074 292.67 408.234 292.67C415.654 292.67 421.534 290.5 425.874 286.16C430.354 281.96 432.594 275.17 432.594 265.79V249.2C429.094 254.66 424.264 259.14 418.104 262.64C411.944 266 404.734 267.68 396.474 267.68C386.814 267.68 378.064 265.23 370.224 260.33C362.384 255.29 356.154 248.22 351.534 239.12C347.054 229.88 344.814 219.24 344.814 207.2C344.814 195.16 347.054 184.59 351.534 175.49C356.154 166.39 362.384 159.39 370.224 154.49C378.064 149.59 386.814 147.14 396.474 147.14ZM432.594 207.41C432.594 198.45 430.074 191.38 425.034 186.2C420.134 181.02 414.114 178.43 406.974 178.43C399.834 178.43 393.744 181.02 388.704 186.2C383.804 191.24 381.354 198.24 381.354 207.2C381.354 216.16 383.804 223.3 388.704 228.62C393.744 233.8 399.834 236.39 406.974 236.39C414.114 236.39 420.134 233.8 425.034 228.62C430.074 223.44 432.594 216.37 432.594 207.41ZM604.943 205.52C604.943 208.88 604.733 212.38 604.313 216.02H523.043C523.603 223.3 525.913 228.9 529.973 232.82C534.173 236.6 539.283 238.49 545.303 238.49C554.263 238.49 560.493 234.71 563.993 227.15H602.213C600.253 234.85 596.683 241.78 591.503 247.94C586.463 254.1 580.093 258.93 572.393 262.43C564.693 265.93 556.083 267.68 546.563 267.68C535.083 267.68 524.863 265.23 515.903 260.33C506.943 255.43 499.943 248.43 494.903 239.33C489.863 230.23 487.343 219.59 487.343 207.41C487.343 195.23 489.793 184.59 494.693 175.49C499.733 166.39 506.733 159.39 515.693 154.49C524.653 149.59 534.943 147.14 546.563 147.14C557.903 147.14 567.983 149.52 576.803 154.28C585.623 159.04 592.483 165.83 597.383 174.65C602.423 183.47 604.943 193.76 604.943 205.52ZM568.193 196.07C568.193 189.91 566.093 185.01 561.893 181.37C557.693 177.73 552.443 175.91 546.143 175.91C540.123 175.91 535.013 177.66 530.813 181.16C526.753 184.66 524.233 189.63 523.253 196.07H568.193ZM689.197 235.55V266H670.927C657.907 266 647.757 262.85 640.477 256.55C633.197 250.11 629.557 239.68 629.557 225.26V178.64H615.277V148.82H629.557V120.26H665.467V148.82H688.987V178.64H665.467V225.68C665.467 229.18 666.307 231.7 667.987 233.24C669.667 234.78 672.467 235.55 676.387 235.55H689.197ZM762.54 267.68C751.06 267.68 740.7 265.23 731.46 260.33C722.36 255.43 715.15 248.43 709.83 239.33C704.65 230.23 702.06 219.59 702.06 207.41C702.06 195.37 704.72 184.8 710.04 175.7C715.36 166.46 722.64 159.39 731.88 154.49C741.12 149.59 751.48 147.14 762.96 147.14C774.44 147.14 784.8 149.59 794.04 154.49C803.28 159.39 810.56 166.46 815.88 175.7C821.2 184.8 823.86 195.37 823.86 207.41C823.86 219.45 821.13 230.09 815.67 239.33C810.35 248.43 803 255.43 793.62 260.33C784.38 265.23 774.02 267.68 762.54 267.68ZM762.54 236.6C769.4 236.6 775.21 234.08 779.97 229.04C784.87 224 787.32 216.79 787.32 207.41C787.32 198.03 784.94 190.82 780.18 185.78C775.56 180.74 769.82 178.22 762.96 178.22C755.96 178.22 750.15 180.74 745.53 185.78C740.91 190.68 738.6 197.89 738.6 207.41C738.6 216.79 740.84 224 745.32 229.04C749.94 234.08 755.68 236.6 762.54 236.6Z" fill="#FEFEFE"/>
</svg>
